<svg width="314" height="107" viewBox="0 0 314 107" fill="none" xmlns="http://www.w3.org/2000/svg">
<g clip-path="url(#clip0)">
<g clip-path="url(#clip1)">
<path d="M55.5429 77.3926H66.758C80.1248 77.4285 80.444 83.3078 80.4805 86.8903C80.4805 87.1505 80.4787 87.3982 80.4787 87.632C80.4653 96.2835 72.8262 98.0474 66.758 98.0599H55.5429V77.3926ZM68.8284 74.9523H48.6868V100.503H68.8284C73.6578 100.503 87.5846 99.2052 87.6132 87.5837C87.5754 77.0373 73.5491 74.9601 68.8284 74.9523" fill="#FFF"/>
<path d="M173.731 74.9538L160.582 90.9245L159.531 92.1914L158.455 90.9245L145.302 74.9538H138.779V100.502H145.381V83.3233V82.8823C145.381 82.4132 145.251 80.0244 145.175 78.7685C147.305 81.7635 157.946 94.9323 157.95 94.9401L157.994 94.9947H158.069H158.988H161.042L161.087 94.9401C161.092 94.9323 171.733 81.765 173.863 78.7685C173.786 80.0275 173.655 82.4132 173.655 82.8823V83.3233V100.502H180.259V74.9538H173.731" fill="#FFF"/>
<path d="M281.098 74.9539V78.0159H294.675V100.503H301.063V100.355V78.0143L314.699 78.0159V74.9539H281.098" fill="#FFF"/>
<path d="M266.33 74.9523V85.9693H244.98V74.9523H238.376V100.503H244.98V89.0344H266.327L266.33 100.503H272.927V74.9523H266.33Z" fill="#FFF"/>
<path d="M219.802 90.8155C216.911 91.2736 211.637 92.1758 209.659 92.3457C207.877 92.2615 202.515 91.3079 199.61 90.8201C202.431 87.8984 205.817 84.7444 209.706 81.8507C213.591 84.7429 216.981 87.8937 219.802 90.8155V90.8155ZM230.959 100.335C229.493 96.8818 220.39 81.5968 209.846 74.463L209.779 74.4272L209.707 74.3866L209.578 74.4568L209.65 74.5908L209.564 74.463C199.026 81.5968 189.919 96.8818 188.454 100.335L188.366 100.539H191.203L191.25 100.485C192.49 98.9668 194.926 95.8253 198.341 92.1571C200.053 92.9737 204.574 94.9527 209.689 95.777C214.136 95.0384 219.184 92.969 221.07 92.1509C224.486 95.8206 226.926 98.9668 228.166 100.485L228.207 100.539H231.048L230.959 100.335" fill="#FFF"/>
<path d="M122.419 90.817C119.53 91.2736 114.263 92.1743 112.281 92.3457C110.497 92.2631 105.134 91.3095 102.23 90.8186C105.053 87.8984 108.442 84.7429 112.329 81.8507C116.211 84.7429 119.598 87.8968 122.419 90.817ZM133.583 100.332C132.112 96.8818 123.006 81.5983 112.466 74.4646L112.404 74.4287L112.331 74.3866L112.201 74.4568L112.272 74.5877L112.188 74.4646C101.645 81.5983 92.5422 96.8818 91.0737 100.332L90.9855 100.539H93.8231L93.8699 100.485C95.1098 98.9699 97.5457 95.8284 100.962 92.1587C102.675 92.9721 107.197 94.9511 112.309 95.777C116.752 95.0399 121.799 92.9706 123.69 92.1525C127.107 95.8222 129.545 98.9668 130.788 100.485L130.833 100.539H133.67L133.583 100.332Z" fill="#FFF"/>
<path d="M31.4363 90.817C28.5447 91.2736 23.2782 92.1743 21.2953 92.3457C19.5131 92.2615 14.1492 91.3079 11.2461 90.8201C14.0678 87.8999 17.4548 84.7444 21.342 81.8507C25.2269 84.7429 28.6127 87.8968 31.4363 90.817V90.817ZM42.5984 100.333C41.1262 96.8818 32.0247 81.5983 21.4819 74.4646L21.4144 74.4287L21.3426 74.3866L21.2125 74.4568L21.288 74.5908L21.2048 74.4646C10.6637 81.5983 1.55916 96.8818 0.0881402 100.333L0 100.539H2.83812L2.88432 100.485C4.12496 98.9668 6.56189 95.8253 9.97747 92.1587C11.6892 92.9736 16.2093 94.9527 21.3196 95.777C25.768 95.0384 30.8156 92.9706 32.7067 92.1525C36.1223 95.8222 38.5604 98.9668 39.8022 100.485L39.8455 100.539H42.6861L42.5984 100.333" fill="#FFF"/>
<path d="M144.254 47.6935C143.087 48.2903 138.374 51.0718 133.556 47.8961C126.494 43.0062 134.225 29.1034 134.118 29.0005C132.448 27.3971 130.478 25.3152 129.988 24.8243C128.397 29.7313 122.861 46.3752 133.284 51.6499C138.541 54.3177 143.95 51.664 146.695 50.1743C145.804 49.3297 145.112 48.6004 144.254 47.6935" fill="#FFE5BC"/>
<path d="M195.7 11.4419C193.245 11.2985 191.617 12.9643 186.512 17.142C186.93 18.1378 187.808 20.1759 188.356 21.5098C192.266 17.8557 192.82 18.1081 192.833 18.1081C195.559 17.7061 192.123 37.5319 186.813 37.5569C184.196 37.5678 183.357 36.678 179.895 36.6842C176.423 36.6858 173.3 39.1479 170.336 42.6291L173.168 44.8496C176.173 41.3139 178.538 39.9659 179.895 39.9659C182.708 39.9628 184.599 40.9788 186.849 40.9788C197.535 40.9788 200.686 11.7224 195.7 11.4419" fill="#FFE5BC"/>
<path d="M173.451 2.47103C169.512 4.0667 162.953 11.7474 160.155 14.8795C161.472 16.3848 162.567 17.6626 164.061 19.2785C167.587 15.8908 170.44 13.0937 172.513 13.1155C176.921 13.1607 184.241 29.8638 186.119 35.7058C186.152 35.8133 187.66 35.606 189.473 31.8194C189.518 31.7415 189.526 31.5561 189.496 31.4408C187.003 20.9022 179.937 6.94948 176.252 3.15354C175.318 2.18897 174.03 2.23885 173.451 2.47103Z" fill="#FFE5BC"/>
<path d="M153.708 21.8729C151.601 24.042 147.174 28.8026 145.049 28.8026C140.809 28.8197 125.876 8.6479 121.3 11.6928C117.586 14.9277 120.555 32.1684 125.332 37.8374C125.356 37.8639 125.235 36.0517 126.273 32.0002C124.142 26.42 123.111 18.3465 124.665 18.1081H124.677H124.69C128.19 18.3388 139.497 34.4481 145.049 34.5027C148.484 34.5338 153.878 28.9911 157.42 25.6985C157.42 25.6985 154.921 23.0775 153.708 21.8729Z" fill="#FFE5BC"/>
<path d="M172.422 28.8056C167.135 28.7246 151.802 5.26016 144.758 2.46151C143.929 2.14207 142.928 2.18256 141.844 3.1409C138.949 5.69646 134.442 12.9003 133.125 16.4314C134.851 17.985 136.96 20.1759 138.249 21.4755C138.335 21.5675 143.262 12.9237 145.804 12.9237C150.009 12.9237 165.56 34.4652 172.41 34.5354C175.083 34.565 179.364 30.2345 181.239 28.5111C180.544 26.9435 180.029 25.8075 179.14 23.9687C177.674 25.365 174.053 28.8383 172.422 28.8056" fill="#FFE5BC"/>
<path d="M186.98 42.7678C186.588 46.4282 184.002 49.3437 179.802 49.4045C172.03 49.5198 166.042 38.922 159.647 38.9345C159.647 38.9345 156.984 38.4358 150.65 43.8648C150.649 43.8695 152.249 45.5384 153.024 46.3549C155.957 44.1983 157.392 42.6291 159.647 42.6463C164.192 42.6681 170.812 52.7251 179.802 52.7205C187.132 52.7189 190.274 46.1243 190.53 41.6723C189.353 42.3673 188.67 42.5465 186.98 42.7678Z" fill="#FFE5BC"/>
<path d="M165.21 47.8991C162.181 50.5544 158.784 50.4952 158.784 50.4952C149.477 50.4889 146.481 36.6001 137.279 36.6655C136.103 36.6702 134.526 36.9227 132.956 37.3792C132.956 37.3792 132.547 38.7178 132.482 40.851C132.482 40.8557 132.482 40.8479 132.482 40.851C132.482 40.8651 135.724 39.9566 136.978 39.9504C143.527 39.9114 147.516 53.7987 158.747 53.7815C162.634 53.7706 165.278 52.2825 168.089 50.0417C167.419 49.5649 165.792 48.3385 165.21 47.8991Z" fill="#FFE5BC"/>
</g>
</g>
<defs>
<clipPath id="clip0">
<rect width="314" height="107" fill="white"/>
</clipPath>
<clipPath id="clip1">
<rect width="794" height="1076" fill="white" transform="translate(0 -37)"/>
</clipPath>
</defs>
</svg>
